<?xml version="1.0" encoding="UTF-8"?>
<svg xmlns="http://www.w3.org/2000/svg" id="Layer_1"  viewBox="0 0 24 24">
  <path fill="#ff8c00" d="M 10 23 c 0 0.6 -0.4 1 -1 1 h -4 c -2.8 0 -5 -2.2 -5 -5 V 5 C 0 2.2 2.2 0 5 0 h 6 c 2.8 0 5 2.2 5 5 v 4 c 0 0.6 -0.4 1 -1 1 s -1 -0.4 -1 -1 v -4 c 0 -1.7 -1.3 -3 -3 -3 h -6 c -1.7 0 -3 1.3 -3 3 v 14 c 0 1.7 1.3 3 3 3 h 4 c 0.6 0 1 0.4 1 1 Z m -4 -10 h -1 c -0.6 0 -1 0.4 -1 1 s 0.4 1 1 1 h 1 c 0.6 0 1 -0.4 1 -1 s -0.4 -1 -1 -1 Z m 5 0 h -1 c -0.6 0 -1 0.4 -1 1 s 0.4 1 1 1 h 1 c 0.6 0 1 -0.4 1 -1 s -0.4 -1 -1 -1 Z m -5 4 h -1 c -0.6 0 -1 0.4 -1 1 s 0.4 1 1 1 h 1 c 0.6 0 1 -0.4 1 -1 s -0.4 -1 -1 -1 Z m 0 -12 h -1 c -0.6 0 -1 0.4 -1 1 s 0.4 1 1 1 h 1 c 0.6 0 1 -0.4 1 -1 s -0.4 -1 -1 -1 Z m 5 0 h -1 c -0.6 0 -1 0.4 -1 1 s 0.4 1 1 1 h 1 c 0.6 0 1 -0.4 1 -1 s -0.4 -1 -1 -1 Z m -5 4 h -1 c -0.6 0 -1 0.4 -1 1 s 0.4 1 1 1 h 1 c 0.6 0 1 -0.4 1 -1 s -0.4 -1 -1 -1 Z m 5 0 h -1 c -0.6 0 -1 0.4 -1 1 s 0.4 1 1 1 h 1 c 0.6 0 1 -0.4 1 -1 s -0.4 -1 -1 -1 Z m 13 8.5 v 3 c 0 1.9 -1.6 3.5 -3.5 3.5 h -5 c -1.9 0 -3.5 -1.6 -3.5 -3.5 v -3 c 0 -1.8 1.3 -3.2 3 -3.4 v -0.1 c 0 -1.1 0.9 -2 2 -2 h 2 c 1.1 0 2 0.9 2 2 v 0.1 c 1.7 0.2 3 1.7 3 3.4 Z m -10 0 v 0.5 h 8 v -0.5 c 0 -0.8 -0.7 -1.5 -1.5 -1.5 h -5 c -0.8 0 -1.5 0.7 -1.5 1.5 Z m 8 3 v -0.5 h -3 c 0 0.6 -0.4 1 -1 1 s -1 -0.4 -1 -1 h -3 v 0.5 c 0 0.8 0.7 1.5 1.5 1.5 h 5 c 0.8 0 1.5 -0.7 1.5 -1.5 Z"/>
</svg>
