<svg xmlns="http://www.w3.org/2000/svg" width="500" viewBox="0 0 375 375" height="500" version="1.0"><defs><clipPath id="prefix__a"><path d="M46.402 133.406H102V210H46.402zm0 0"/></clipPath><clipPath id="prefix__b"><path d="M54 138h55.523v75.742H54zm0 0"/></clipPath><clipPath id="prefix__c"><path d="M84.96 190.238h24.759v26.61H84.96zm0 0"/></clipPath><clipPath id="prefix__d"><path d="M76.148 173.734h34.43v35.387h-34.43zm0 0"/></clipPath></defs><path fill="#fff" d="M-37.5-37.5h450v450h-450z"/><path fill="#fff" d="M-37.5-37.5h450v450h-450z"/><path d="M142.537 199.043h1.719v10.797h-31.719v-1.719l3.64-.406c.708-.082 1.126-.254 1.25-.516.133-.269.204-1.175.204-2.718v-34.328c0-1.54-.07-2.442-.203-2.704-.125-.269-.543-.453-1.25-.546l-3.641-.329v-1.78h30.86v10.796h-1.657l-1.922-6.953c-.125-.531-.265-.914-.422-1.156-.156-.25-.46-.407-.906-.469-.437-.07-1.187-.11-2.25-.11h-12.844v19.157h8.875c1.063 0 1.813-.031 2.25-.094.446-.07.743-.226.891-.469.156-.25.3-.632.438-1.156l1.265-4.969h1.719v15.5h-1.719l-1.265-4.968c-.137-.532-.282-.914-.438-1.157-.148-.25-.445-.406-.89-.468-.438-.063-1.188-.094-2.25-.094h-8.876v19.531h13.641c1.063 0 1.813-.031 2.25-.094.445-.062.75-.21.906-.453.157-.25.297-.64.422-1.172zm35.716-32.469v-1.78h12.64v1.78l-3.64.329c-.711.093-1.133.289-1.266.578-.125.281-.187 1.172-.187 2.672v39.687h-3.25l-24.11-40.672v35.313c0 1.5.063 2.398.188 2.687.133.281.555.465 1.265.547l3.641.406v1.72h-12.64v-1.72l3.64-.406c.707-.082 1.125-.266 1.25-.547.133-.289.203-1.187.203-2.687v-34.328c0-1.5-.07-2.391-.203-2.672-.125-.29-.543-.485-1.25-.578l-3.64-.329v-1.78h11.453l21 35.5v-30.141c0-1.5-.07-2.391-.204-2.672-.125-.29-.542-.485-1.25-.578zm18.35 0v-1.78h15.953v1.78l-3.64.329c-.711.093-1.133.277-1.266.546-.125.262-.187 1.165-.187 2.704v34.328c0 1.543.062 2.449.187 2.718.133.262.555.434 1.266.516l3.64.406v1.72h-15.953v-1.72l3.64-.406c.708-.082 1.126-.254 1.25-.516.134-.269.204-1.175.204-2.718v-34.328c0-1.54-.07-2.442-.203-2.704-.125-.269-.543-.453-1.25-.546zm19.931-1.781h35.25v10.797h-1.719l-1.922-6.953c-.137-.531-.281-.914-.437-1.156-.157-.25-.461-.407-.907-.469-.437-.07-1.183-.11-2.234-.11h-7.484v37.579c0 1.543.062 2.449.187 2.718.133.262.555.434 1.266.516l3.64.406v1.72h-15.968v-1.72l3.64-.406c.707-.082 1.13-.254 1.266-.516.133-.269.203-1.175.203-2.718v-37.578h-7.562c-1.012 0-1.75.039-2.22.109-.46.062-.765.219-.921.469-.156.242-.305.625-.438 1.156l-1.921 6.953h-1.72zm81.028 43.328v1.72h-15.97v-1.72l3.641-.406c.708-.082 1.125-.254 1.25-.516.133-.269.204-1.175.204-2.718v-16.297h-20v16.297c0 1.543.062 2.449.187 2.718.133.262.555.434 1.266.516l3.64.406v1.72h-15.953v-1.72l3.64-.406c.708-.082 1.126-.254 1.25-.516.134-.269.204-1.175.204-2.718v-34.328c0-1.54-.07-2.442-.203-2.704-.125-.269-.543-.453-1.25-.546l-3.64-.329v-1.78h15.952v1.78l-3.64.329c-.711.093-1.133.277-1.266.546-.125.262-.187 1.165-.187 2.704v15.906h20v-15.906c0-1.54-.07-2.442-.204-2.704-.125-.269-.542-.453-1.25-.546l-3.64-.329v-1.78h15.969v1.78l-3.641.329c-.71.093-1.133.277-1.266.546-.136.262-.203 1.165-.203 2.704v34.328c0 1.543.067 2.449.203 2.718.133.262.555.434 1.266.516zm0 0" fill="#d78628"/><g clip-path="url(#prefix__a)"><path fill="#d78628" d="M101.578 138.156L54.711 209.31h-8.29l44.29-66.403H76.46c-15.793 0-25.293 14.223-25.293 14.223l.004-23.723s3.156 4.75 11.066 4.75zm0 0" fill-rule="evenodd"/></g><g clip-path="url(#prefix__b)"><path fill="#06447b" d="M104.938 190.332v23.723s-3.16-4.746-11.067-4.746h-39.16l46.867-71.153h8.11L65.394 204.56h14.25c15.793 0 25.293-14.227 25.293-14.227" fill-rule="evenodd"/></g><g clip-path="url(#prefix__c)"><path fill="#fff" d="M84.96 190.238h24.759v26.598H84.96zm0 0"/></g><g clip-path="url(#prefix__d)"><path fill="#06447b" d="M78.027 213.523h6.34v6.34h-6.34zm7.637 6.34h6.344v-12.828h-6.344zm7.785 0h6.344v-19.172h-6.344zm7.64 0h6.345v-25.66h-6.344zm7.641-32v32h6.344v-32zm-1.875-6.633l2.454.864-1.73-8.36-6.634 5.332 2.164.868c-4.613 12.972-14.418 23.351-26.957 28.976 13.84-4.469 24.938-14.707 30.703-27.68zm0 0"/></g><path d="M80.156 217.66a.3.3 0 01.234.109c.07.062.11.148.11.25a.33.33 0 01-.11.234.318.318 0 01-.234.094h-3.203a.35.35 0 01-.266-.11.335.335 0 01-.11-.25v-4.859c0-.094.036-.176.11-.25a.339.339 0 01.266-.125h3.203c.094 0 .172.04.234.11.07.074.11.152.11.234a.35.35 0 01-.11.25.318.318 0 01-.234.094h-2.844v1.765h2.547c.094 0 .172.04.234.11.07.062.11.14.11.234s-.032.18-.094.25a.342.342 0 01-.25.094h-2.547v1.765zm10.204-4.938a.49.49 0 01.375.156c.101.105.156.23.156.375v4.766c0 .105-.04.195-.11.265a.357.357 0 01-.25.11.35.35 0 01-.25-.11.35.35 0 01-.109-.265v-4.532l-1.86 4.563a.533.533 0 01-.202.25.489.489 0 01-.297.094.578.578 0 01-.328-.094.646.646 0 01-.204-.25l-1.843-4.563v4.532c0 .105-.04.195-.11.265a.325.325 0 01-.25.11.365.365 0 01-.265-.11.35.35 0 01-.11-.265v-4.766c0-.145.051-.27.157-.375a.513.513 0 01.375-.156h.265c.102 0 .196.031.281.094.094.062.16.14.204.234l1.828 4.531 1.812-4.531a.545.545 0 01.188-.234.473.473 0 01.297-.094zm7.282.031c.75 0 1.305.195 1.672.578.313.313.469.715.469 1.203 0 .492-.156.89-.469 1.203-.375.387-.933.579-1.672.579H96.19v1.703a.362.362 0 01-.11.265.325.325 0 01-.25.11.365.365 0 01-.265-.11.35.35 0 01-.11-.265v-4.891c0-.094.036-.176.11-.25a.339.339 0 01.266-.125zm-.062 2.875c.55 0 .945-.113 1.187-.344.196-.187.29-.437.282-.75 0-.488-.246-.816-.735-.984a2.888 2.888 0 00-.734-.11h-1.39v2.188zm6.708-2.141c.507-.539 1.187-.812 2.03-.812.845 0 1.52.273 2.032.812.5.524.758 1.211.781 2.063-.023.844-.281 1.539-.781 2.078-.512.531-1.187.797-2.031.797-.844 0-1.524-.266-2.031-.797-.512-.54-.774-1.234-.782-2.078.008-.844.27-1.531.782-2.063zm2.03 4.25c.657 0 1.165-.207 1.532-.625.363-.406.547-.925.547-1.562 0-.633-.184-1.156-.547-1.563-.375-.414-.887-.625-1.531-.625-.649 0-1.164.211-1.547.625-.367.407-.543.93-.531 1.563 0 .637.175 1.156.53 1.562.384.418.9.625 1.548.625zm10.294-5.015c.094 0 .176.031.25.094a.358.358 0 01.156.203l1.36 4.406 1.343-4.406c.063-.196.188-.297.375-.297.102 0 .188.031.25.094a.288.288 0 01.094.203.522.522 0 01-.031.187l-1.563 4.813c-.086.25-.242.375-.469.375a.523.523 0 01-.296-.094.522.522 0 01-.172-.281l-1.297-4.063-1.281 4.063a.507.507 0 01-.188.265.44.44 0 01-.281.11c-.23 0-.39-.125-.485-.375l-1.562-4.813a.862.862 0 01-.016-.187.29.29 0 01.094-.203.318.318 0 01.234-.094c.196 0 .32.101.375.297l1.344 4.406 1.344-4.406a.441.441 0 01.156-.203.432.432 0 01.266-.094zm11.386 4.938a.3.3 0 01.234.109c.07.062.11.148.11.25a.33.33 0 01-.11.234.318.318 0 01-.234.094h-3.203a.35.35 0 01-.266-.11.335.335 0 01-.11-.25v-4.859c0-.094.036-.176.11-.25a.339.339 0 01.266-.125h3.203c.094 0 .172.04.234.11.07.074.11.152.11.234a.35.35 0 01-.11.25.318.318 0 01-.234.094h-2.844v1.765h2.547c.094 0 .172.04.235.11.07.062.109.14.109.234s-.031.18-.094.25a.342.342 0 01-.25.094h-2.547v1.765zm8.907.359c0 .105-.04.195-.11.265a.341.341 0 01-.265.11.387.387 0 01-.266-.094.408.408 0 01-.093-.281v-.235c0-.437-.047-.754-.141-.953a1.212 1.212 0 00-.39-.469c-.169-.125-.403-.187-.704-.187h-1.656v1.844c0 .105-.04.195-.11.265a.325.325 0 01-.25.11.365.365 0 01-.265-.11.35.35 0 01-.11-.265v-4.891c0-.094.036-.176.11-.25a.339.339 0 01.266-.125h1.859c.727 0 1.281.156 1.656.469.352.304.524.687.516 1.156 0 .313-.09.605-.266.875-.168.262-.43.453-.781.578.383.094.664.371.844.828.113.305.164.637.156 1zm-2.172-2.547c.445 0 .805-.082 1.078-.25.27-.176.406-.438.406-.781 0-.32-.105-.563-.312-.72-.262-.187-.668-.28-1.219-.28h-1.406v2.03zm6.909-2.75a.376.376 0 01.36.375v4.922c0 .105-.04.195-.11.265a.325.325 0 01-.25.11.365.365 0 01-.266-.11.35.35 0 01-.11-.265v-4.922c0-.102.036-.192.11-.266.07-.07.16-.11.266-.11zm9.435 0c.102 0 .188.039.25.11.07.073.11.163.11.265v4.765a.513.513 0 01-.157.375.495.495 0 01-.36.157h-.109a.48.48 0 01-.421-.22l-3.094-4.483v4.328c0 .105-.04.195-.11.265a.325.325 0 01-.25.11.365.365 0 01-.265-.11.35.35 0 01-.11-.265v-4.766c0-.145.051-.27.157-.375a.513.513 0 01.375-.156h.093c.176 0 .329.086.454.25l3.078 4.437v-4.312a.36.36 0 01.11-.266.35.35 0 01.25-.11zm7.506 5.015c.5 0 .969-.113 1.406-.343v-1.453h-1.328a.318.318 0 01-.328-.329c0-.093.031-.171.094-.234a.345.345 0 01.234-.094h1.578a.38.38 0 01.266.11c.07.074.11.168.11.28v1.798c0 .125-.028.23-.079.312a.465.465 0 01-.219.188 3.955 3.955 0 01-1.828.453c-.836 0-1.511-.266-2.03-.797-.513-.54-.774-1.227-.782-2.062 0-.844.27-1.547.812-2.11.508-.52 1.164-.781 1.97-.781.456 0 .843.058 1.155.172.313.117.594.25.844.406a.3.3 0 01.156.266.387.387 0 01-.093.265.257.257 0 01-.204.094.381.381 0 01-.203-.047c-.511-.3-1.039-.453-1.578-.453-.617 0-1.12.195-1.515.578-.418.399-.622.934-.61 1.61 0 .625.188 1.14.563 1.546.394.418.93.625 1.61.625zm15.172-4.827c.07-.126.164-.188.281-.188.125 0 .22.039.282.11.07.073.109.155.109.25a.333.333 0 01-.078.218l-1.906 2.687v2.032c0 .105-.04.195-.11.265a.357.357 0 01-.515 0 .35.35 0 01-.11-.265v-2.032l-1.922-2.687a.476.476 0 01-.047-.219c0-.094.032-.176.094-.25a.335.335 0 01.266-.11c.125 0 .226.063.312.188l1.672 2.422zm5.137.577c.508-.539 1.188-.812 2.032-.812.843 0 1.52.273 2.031.812.5.524.758 1.211.781 2.063-.023.844-.281 1.539-.781 2.078-.512.531-1.188.797-2.031.797-.844 0-1.524-.266-2.032-.797-.511-.54-.773-1.234-.78-2.078.007-.844.269-1.531.78-2.063zm2.032 4.25c.656 0 1.164-.207 1.531-.625.363-.406.547-.925.547-1.562 0-.633-.184-1.156-.547-1.563-.375-.414-.887-.625-1.531-.625-.649 0-1.164.211-1.547.625-.367.407-.543.93-.531 1.563 0 .637.175 1.156.53 1.562.384.418.9.625 1.548.625zm11.23-5.015c.094 0 .176.039.25.11.07.073.11.163.11.265v3.156c0 .7-.25 1.246-.75 1.64-.43.356-.946.532-1.547.532-.617 0-1.137-.176-1.563-.531-.492-.407-.734-.953-.734-1.641v-3.156a.36.36 0 01.11-.266.35.35 0 01.25-.11c.093 0 .175.04.25.11a.35.35 0 01.124.266v3.172c0 .48.16.855.485 1.125.3.242.66.359 1.078.359.414 0 .773-.117 1.078-.36.32-.28.484-.656.484-1.124v-3.172a.36.36 0 01.11-.266c.07-.07.16-.11.265-.11zm9.239 5.297c0 .105-.04.195-.11.265a.341.341 0 01-.265.11.387.387 0 01-.266-.094.408.408 0 01-.094-.281v-.235c0-.437-.046-.754-.14-.953a1.212 1.212 0 00-.39-.469c-.169-.125-.403-.187-.704-.187h-1.656v1.844c0 .105-.04.195-.11.265a.325.325 0 01-.25.11.365.365 0 01-.265-.11.35.35 0 01-.11-.265v-4.891c0-.094.036-.176.11-.25a.339.339 0 01.265-.125h1.86c.726 0 1.281.156 1.656.469.352.304.524.687.516 1.156 0 .313-.09.605-.266.875-.168.262-.43.453-.781.578.383.094.664.371.844.828.113.305.164.637.156 1zm-2.172-2.547c.445 0 .805-.082 1.078-.25.27-.176.406-.438.406-.781 0-.32-.105-.563-.312-.72-.262-.187-.668-.28-1.219-.28h-1.406v2.03zm13.522 2.265c.925 0 1.394-.304 1.406-.921 0-.258-.184-.461-.547-.61a4.817 4.817 0 00-.547-.172c-.199-.05-.402-.101-.61-.156-.21-.062-.417-.129-.624-.203a2.292 2.292 0 01-.547-.297 1.306 1.306 0 01-.547-1.062c0-.47.18-.848.547-1.141.383-.332.898-.5 1.547-.5.582 0 1.11.09 1.578.266.144.054.223.164.234.328a.33.33 0 01-.093.218c-.055.075-.118.11-.188.11a.806.806 0 01-.266-.063 3.891 3.891 0 00-1.187-.172c-.418 0-.758.079-1.016.235-.28.156-.422.383-.422.672 0 .293.176.523.532.687.164.074.347.137.547.188l.625.14c.218.055.425.121.625.203.195.075.375.164.53.266.352.262.536.637.548 1.125 0 .45-.188.82-.563 1.11-.375.292-.87.437-1.484.437-.68 0-1.313-.125-1.906-.375a.525.525 0 01-.172-.14.347.347 0 01-.063-.204c0-.082.031-.156.094-.219.062-.07.129-.109.203-.109a.77.77 0 01.281.078c.114.055.301.117.563.188.258.062.566.093.922.093zm10.45-5.015a.375.375 0 01.359.375v3.156c0 .7-.25 1.246-.75 1.64-.43.356-.945.532-1.547.532-.617 0-1.137-.176-1.562-.531-.493-.407-.735-.953-.735-1.641v-3.156a.36.36 0 01.11-.266.35.35 0 01.25-.11c.093 0 .175.04.25.11a.35.35 0 01.125.266v3.172c0 .48.16.855.484 1.125.3.242.66.359 1.078.359.414 0 .774-.117 1.078-.36.32-.28.485-.656.485-1.124v-3.172c0-.102.035-.192.109-.266.07-.07.16-.11.266-.11zm8.894 4.625a.397.397 0 01.172-.031c.082 0 .149.03.203.093a.302.302 0 01.094.219.34.34 0 01-.187.313 4.33 4.33 0 01-.797.343c-.281.094-.625.14-1.031.14-.399 0-.766-.062-1.11-.187a2.553 2.553 0 01-.875-.578c-.531-.52-.797-1.222-.797-2.11 0-.874.266-1.577.797-2.108.508-.508 1.176-.766 2-.766a3 3 0 011.016.156c.289.094.508.184.656.266.145.086.234.152.266.203a.27.27 0 01.062.187.281.281 0 01-.094.204.244.244 0 01-.187.093.45.45 0 01-.188-.031 3.166 3.166 0 00-.656-.266 2.744 2.744 0 00-.828-.109c-.336 0-.637.059-.906.172a2.15 2.15 0 00-.688.453c-.355.398-.527.914-.515 1.547 0 .637.172 1.152.515 1.547.395.43.938.64 1.625.64.313 0 .578-.035.797-.109a3.46 3.46 0 00.656-.281zm8.604 0a.397.397 0 01.172-.031c.082 0 .149.03.203.093a.302.302 0 01.094.219.34.34 0 01-.187.313 4.33 4.33 0 01-.797.343c-.281.094-.625.14-1.031.14-.399 0-.766-.062-1.11-.187a2.553 2.553 0 01-.875-.578c-.531-.52-.797-1.222-.797-2.11 0-.874.266-1.577.797-2.108.508-.508 1.176-.766 2-.766a3 3 0 011.016.156c.289.094.508.184.656.266.145.086.234.152.266.203a.27.27 0 01.062.187.281.281 0 01-.094.204.244.244 0 01-.187.093.45.45 0 01-.188-.031 3.166 3.166 0 00-.656-.266 2.744 2.744 0 00-.828-.109c-.336 0-.637.059-.906.172a2.15 2.15 0 00-.688.453c-.355.398-.527.914-.515 1.547 0 .637.172 1.152.515 1.547.395.43.938.64 1.625.64.313 0 .578-.035.797-.109a3.46 3.46 0 00.656-.281zm8.167.313a.3.3 0 01.234.109c.07.062.11.148.11.25a.33.33 0 01-.11.234.318.318 0 01-.234.094h-3.203a.35.35 0 01-.266-.11.335.335 0 01-.11-.25v-4.859c0-.094.036-.176.11-.25a.339.339 0 01.266-.125h3.203c.094 0 .172.04.234.11.07.074.11.152.11.234a.35.35 0 01-.11.25.318.318 0 01-.234.094h-2.844v1.765h2.547c.094 0 .172.04.234.11.07.062.11.14.11.234s-.031.18-.094.25a.342.342 0 01-.25.094h-2.547v1.765zm6.251.077c.925 0 1.394-.304 1.406-.921 0-.258-.184-.461-.547-.61a4.817 4.817 0 00-.547-.172c-.2-.05-.402-.101-.61-.156-.21-.062-.417-.129-.624-.203a2.292 2.292 0 01-.547-.297 1.306 1.306 0 01-.547-1.062c0-.47.18-.848.547-1.141.383-.332.898-.5 1.547-.5.582 0 1.11.09 1.578.266.144.054.223.164.234.328a.33.33 0 01-.094.218c-.054.075-.117.11-.187.11a.806.806 0 01-.266-.063 3.891 3.891 0 00-1.187-.172c-.418 0-.758.079-1.016.235-.281.156-.422.383-.422.672 0 .293.176.523.532.687.164.074.347.137.546.188.196.043.407.09.625.14.22.055.426.121.625.203.196.075.375.164.532.266.351.262.535.637.547 1.125 0 .45-.188.82-.563 1.11-.375.292-.871.437-1.484.437-.68 0-1.313-.125-1.907-.375a.525.525 0 01-.171-.14.347.347 0 01-.063-.204c0-.082.031-.156.094-.219.062-.07.129-.109.203-.109a.77.77 0 01.281.078c.114.055.301.117.563.188.258.062.566.093.922.093zm7.95 0c.925 0 1.394-.304 1.406-.921 0-.258-.184-.461-.547-.61a4.817 4.817 0 00-.547-.172c-.2-.05-.402-.101-.61-.156-.21-.062-.417-.129-.624-.203a2.292 2.292 0 01-.547-.297 1.306 1.306 0 01-.547-1.062c0-.47.18-.848.547-1.141.383-.332.898-.5 1.547-.5.582 0 1.11.09 1.578.266.144.054.222.164.234.328a.33.33 0 01-.094.218c-.054.075-.117.11-.187.11a.806.806 0 01-.266-.063 3.891 3.891 0 00-1.187-.172c-.418 0-.758.079-1.016.235-.281.156-.422.383-.422.672 0 .293.176.523.532.687.164.074.347.137.546.188.196.043.407.09.625.14.22.055.426.121.625.203.196.075.375.164.532.266.351.262.535.637.547 1.125 0 .45-.188.82-.563 1.11-.375.292-.871.437-1.484.437-.68 0-1.313-.125-1.907-.375a.525.525 0 01-.171-.14.347.347 0 01-.063-.204c0-.082.031-.156.094-.219.062-.07.129-.109.203-.109a.77.77 0 01.281.078c.113.055.301.117.563.188.257.062.566.093.922.093zm0 0"/></svg>