<svg xmlns="http://www.w3.org/2000/svg" viewBox="0 0 500 500"><g id="freepik--background-simple--inject-78"><path d="M 86.5 251.5 c -45.3 -48 51 -143.8 116.7 -152.9 c 52.9 -7.3 56 37.9 82.3 58.9 c 38.3 30.6 108.2 -8.6 130.9 32 c 37 66 -77.2 224.5 -144.7 187.4 c -44.3 -24.4 -35.5 -90.6 -64.3 -114.3 C 181 240.7 118.6 285.4 86.5 251.5 Z" style="fill: #0078d7"></path><path d="M 86.5 251.5 c -45.3 -48 51 -143.8 116.7 -152.9 c 52.9 -7.3 56 37.9 82.3 58.9 c 38.3 30.6 108.2 -8.6 130.9 32 c 37 66 -77.2 224.5 -144.7 187.4 c -44.3 -24.4 -35.5 -90.6 -64.3 -114.3 C 181 240.7 118.6 285.4 86.5 251.5 Z" style="fill: #ffffff; opacity: 0.9"></path></g><g id="freepik--device-4--inject-78"><path d="M 191.2 117.3 h 10.2 l 10.3 117.3 H 201.4 a 9.5 9.5 0 0 1 -9.3 -8.5 l -8.8 -100.2 A 7.7 7.7 0 0 1 191.2 117.3 Z" style="fill: #0078d7"></path><path d="M 184.9 129.1 a 0.9 0.9 0 0 0 -0.9 -0.8 a 0.7 0.7 0 0 0 -0.7 0.8 l 0.7 7.9 a 0.9 0.9 0 0 0 0.9 0.8 a 0.7 0.7 0 0 0 0.8 -0.8 Z" style="fill: #0078d7"></path><path d="M 184.9 129.1 a 0.9 0.9 0 0 0 -0.9 -0.8 a 0.7 0.7 0 0 0 -0.7 0.8 l 0.7 7.9 a 0.9 0.9 0 0 0 0.9 0.8 a 0.7 0.7 0 0 0 0.8 -0.8 Z" style="fill: #ffffff; opacity: 0.5"></path><path d="M 203.5 234.6 h 41.9 a 7.7 7.7 0 0 0 7.8 -8.5 l -8.8 -100.2 a 9.5 9.5 0 0 0 -9.3 -8.5 H 193.3 a 7.7 7.7 0 0 0 -7.8 8.5 L 194.2 226 A 9.5 9.5 0 0 0 203.5 234.6 Z" style="fill: #0078d7"></path><path d="M 203.5 234.6 h 41.9 a 7.7 7.7 0 0 0 7.8 -8.5 l -8.8 -100.2 a 9.5 9.5 0 0 0 -9.3 -8.5 H 193.3 a 7.7 7.7 0 0 0 -7.8 8.5 L 194.2 226 A 9.5 9.5 0 0 0 203.5 234.6 Z" style="fill: #ffffff; opacity: 0.5"></path><path d="M 193.4 119.3 h 10.9 a 1.6 1.6 0 0 1 1.5 1.2 l 0.1 0.3 a 3.9 3.9 0 0 0 3.7 3 H 220 a 3.1 3.1 0 0 0 3.2 -3 l 0 -0.3 a 1.3 1.3 0 0 1 1.3 -1.2 h 10.9 a 7.3 7.3 0 0 1 7.2 6.6 L 251.3 226 a 5.9 5.9 0 0 1 -6 6.6 H 203.3 A 7.3 7.3 0 0 1 196.2 226 l -8.8 -100.2 A 5.9 5.9 0 0 1 193.4 119.3 Z" style="fill: #ffffff"></path><path d="M 217 120.4 a 0.9 0.9 0 0 0 0.9 0.8 a 0.8 0.8 0 0 0 0.8 -0.8 a 0.9 0.9 0 0 0 -0.9 -0.8 A 0.8 0.8 0 0 0 217 120.4 Z" style="fill: #263238"></path><path d="M 211.1 119.6 h 2.9 a 0.9 0.9 0 0 1 0.9 0.8 a 0.8 0.8 0 0 1 -0.8 0.8 H 211.2 a 0.9 0.9 0 0 1 -0.9 -0.8 A 0.8 0.8 0 0 1 211.1 119.6 Z" style="fill: #263238"></path><polygon points="248.3,192.3 193.2,192.3 188.4,137.3 243.5,137.3 248.3,192.3" style="fill: #263238"></polygon><path d="M 199.8 130.7 a 4 4 0 0 1 -4.1 4.5 a 5 5 0 0 1 -4.9 -4.5 a 4 4 0 0 1 4.1 -4.5 A 5 5 0 0 1 199.8 130.7 Z" style="fill: #263238"></path><path d="M 236.8 132.8 h -8.6 a 2.3 2.3 0 0 1 -2.2 -2.1 h 0 a 1.9 1.9 0 0 1 1.9 -2.1 h 8.6 a 2.3 2.3 0 0 1 2.2 2.1 h 0 A 1.9 1.9 0 0 1 236.8 132.8 Z" style="fill: #263238"></path><path d="M 218 200 h -18.4 a 2.2 2.2 0 0 1 -2.1 -2 h 0 a 1.8 1.8 0 0 1 1.8 -2 h 18.4 a 2.2 2.2 0 0 1 2.1 2 h 0 A 1.8 1.8 0 0 1 218 200 Z" style="fill: #263238"></path><path d="M 242 207.8 H 200.3 a 2.2 2.2 0 0 1 -2.1 -2 h 0 a 1.8 1.8 0 0 1 1.8 -2 h 41.7 a 2.2 2.2 0 0 1 2.2 2 h 0 A 1.8 1.8 0 0 1 242 207.8 Z" style="fill: #263238"></path><path d="M 232.1 213.8 H 200.8 a 2.2 2.2 0 0 1 -2.1 -2 h 0 a 1.8 1.8 0 0 1 1.8 -2 h 31.3 a 2.2 2.2 0 0 1 2.1 2 h 0 A 1.8 1.8 0 0 1 232.1 213.8 Z" style="fill: #263238"></path><path d="M 238.2 219.8 h -36.8 a 2.2 2.2 0 0 1 -2.1 -2 h 0 a 1.8 1.8 0 0 1 1.8 -2 h 36.8 a 2.2 2.2 0 0 1 2.1 2 h 0 A 1.8 1.8 0 0 1 238.2 219.8 Z" style="fill: #263238"></path><path d="M 213.2 225.8 H 201.9 a 2.2 2.2 0 0 1 -2.1 -2 h 0 a 1.8 1.8 0 0 1 1.8 -2 H 212.8 a 2.2 2.2 0 0 1 2.1 2 h 0 A 1.8 1.8 0 0 1 213.2 225.8 Z" style="fill: #263238"></path><polygon points="248.3,192.3 193.2,192.3 188.4,137.3 243.5,137.3 248.3,192.3" style="fill: #ffffff; opacity: 0.9"></polygon><path d="M 199.8 130.7 a 4 4 0 0 1 -4.1 4.5 a 5 5 0 0 1 -4.9 -4.5 a 4 4 0 0 1 4.1 -4.5 A 5 5 0 0 1 199.8 130.7 Z" style="fill: #ffffff; opacity: 0.9"></path><path d="M 236.8 132.8 h -8.6 a 2.3 2.3 0 0 1 -2.2 -2.1 h 0 a 1.9 1.9 0 0 1 1.9 -2.1 h 8.6 a 2.3 2.3 0 0 1 2.2 2.1 h 0 A 1.9 1.9 0 0 1 236.8 132.8 Z" style="fill: #ffffff; opacity: 0.9"></path><path d="M 218 200 h -18.4 a 2.2 2.2 0 0 1 -2.1 -2 h 0 a 1.8 1.8 0 0 1 1.8 -2 h 18.4 a 2.2 2.2 0 0 1 2.1 2 h 0 A 1.8 1.8 0 0 1 218 200 Z" style="fill: #ffffff; opacity: 0.9"></path><path d="M 242 207.8 H 200.3 a 2.2 2.2 0 0 1 -2.1 -2 h 0 a 1.8 1.8 0 0 1 1.8 -2 h 41.7 a 2.2 2.2 0 0 1 2.2 2 h 0 A 1.8 1.8 0 0 1 242 207.8 Z" style="fill: #ffffff; opacity: 0.9"></path><path d="M 232.1 213.8 H 200.8 a 2.2 2.2 0 0 1 -2.1 -2 h 0 a 1.8 1.8 0 0 1 1.8 -2 h 31.3 a 2.2 2.2 0 0 1 2.1 2 h 0 A 1.8 1.8 0 0 1 232.1 213.8 Z" style="fill: #ffffff; opacity: 0.9"></path><path d="M 238.2 219.8 h -36.8 a 2.2 2.2 0 0 1 -2.1 -2 h 0 a 1.8 1.8 0 0 1 1.8 -2 h 36.8 a 2.2 2.2 0 0 1 2.1 2 h 0 A 1.8 1.8 0 0 1 238.2 219.8 Z" style="fill: #ffffff; opacity: 0.9"></path><path d="M 213.2 225.8 H 201.9 a 2.2 2.2 0 0 1 -2.1 -2 h 0 a 1.8 1.8 0 0 1 1.8 -2 H 212.8 a 2.2 2.2 0 0 1 2.1 2 h 0 A 1.8 1.8 0 0 1 213.2 225.8 Z" style="fill: #ffffff; opacity: 0.9"></path><path d="M 229.7 181.9 H 212.8 a 4.8 4.8 0 0 1 -4.7 -4.3 l -1.5 -16.9 a 4.2 4.2 0 0 1 1.1 -3.2 a 4.1 4.1 0 0 1 3.1 -1.3 h 16.9 a 4.8 4.8 0 0 1 4.7 4.3 l 1.5 16.9 a 4.2 4.2 0 0 1 -1.1 3.2 A 4.1 4.1 0 0 1 229.7 181.9 Z m -19 -23.7 a 2 2 0 0 0 -2.1 2.3 l 1.5 16.9 a 2.8 2.8 0 0 0 2.7 2.5 h 16.9 a 2 2 0 0 0 2.1 -2.3 l -1.5 -16.9 a 2.8 2.8 0 0 0 -2.7 -2.5 Z" style="fill: #263238"></path><g style="opacity: 0.5"><path d="M 229.7 181.9 H 212.8 a 4.8 4.8 0 0 1 -4.7 -4.3 l -1.5 -16.9 a 4.2 4.2 0 0 1 1.1 -3.2 a 4.1 4.1 0 0 1 3.1 -1.3 h 16.9 a 4.8 4.8 0 0 1 4.7 4.3 l 1.5 16.9 a 4.2 4.2 0 0 1 -1.1 3.2 A 4.1 4.1 0 0 1 229.7 181.9 Z m -19 -23.7 a 2 2 0 0 0 -2.1 2.3 l 1.5 16.9 a 2.8 2.8 0 0 0 2.7 2.5 h 16.9 a 2 2 0 0 0 2.1 -2.3 l -1.5 -16.9 a 2.8 2.8 0 0 0 -2.7 -2.5 Z" style="fill: #ffffff"></path></g><path d="M 216.7 176.1 l -12.9 -11.9 a 2.2 2.2 0 0 1 -0.1 -3.1 h 0 a 2.2 2.2 0 0 1 3.1 -0.1 l 9.6 8.8 l 18.7 -20.4 a 2.2 2.2 0 0 1 3.1 -0.1 h 0 a 2.2 2.2 0 0 1 0.1 3.1 Z" style="fill: #0078d7"></path><g style="opacity: 0.2"><path d="M 216.7 176.1 l -12.9 -11.9 a 2.2 2.2 0 0 1 -0.1 -3.1 h 0 a 2.2 2.2 0 0 1 3.1 -0.1 l 9.6 8.8 l 18.7 -20.4 a 2.2 2.2 0 0 1 3.1 -0.1 h 0 a 2.2 2.2 0 0 1 0.1 3.1 Z"></path></g></g><g id="freepik--device-3--inject-78"><path d="M 249.2 370 a 1.9 1.9 0 0 0 -1.4 0 h -34.3 l -14.4 42.3 h 36.2 L 236 410 h 2.2 l 12.1 -37.6 A 1.9 1.9 0 0 0 249.2 370 Z m -15.7 19.9 l -1.2 3.9 a 5.8 5.8 0 0 1 -5.5 4 h -1.7 a 4.5 4.5 0 0 1 -4.3 -5.8 l 1.3 -3.9 a 5.8 5.8 0 0 1 5.5 -4 h 1.7 A 4.5 4.5 0 0 1 233.4 389.9 Z" style="fill: #263238"></path><path d="M 249.2 370 a 1.9 1.9 0 0 0 -1.4 0 h -34.3 l -14.4 42.3 h 36.2 L 236 410 h 2.2 l 12.1 -37.6 A 1.9 1.9 0 0 0 249.2 370 Z m -15.7 19.9 l -1.2 3.9 a 5.8 5.8 0 0 1 -5.5 4 h -1.7 a 4.5 4.5 0 0 1 -4.3 -5.8 l 1.3 -3.9 a 5.8 5.8 0 0 1 5.5 -4 h 1.7 A 4.5 4.5 0 0 1 233.4 389.9 Z" style="fill: #ffffff; opacity: 0.30000000000000004"></path><path d="M 277.5 410 H 241.8 a 1.9 1.9 0 0 1 1.9 1.9 v 0.7 a 1.9 1.9 0 0 1 -1.9 1.9 h 35.7 a 1.9 1.9 0 0 0 1.9 -1.9 v -0.7 A 1.9 1.9 0 0 0 277.5 410 Z" style="fill: #263238"></path><path d="M 277.5 410 H 241.8 a 1.9 1.9 0 0 1 1.9 1.9 v 0.7 a 1.9 1.9 0 0 1 -1.9 1.9 h 35.7 a 1.9 1.9 0 0 0 1.9 -1.9 v -0.7 A 1.9 1.9 0 0 0 277.5 410 Z" style="fill: #ffffff; opacity: 0.30000000000000004"></path><path d="M 241.8 414.6 H 197 l 14 -43.3 a 1.9 1.9 0 0 1 2.5 -1.2 h 0 a 1.9 1.9 0 0 1 1.1 2.4 L 202.5 410 h 39.3 a 1.9 1.9 0 0 1 1.9 1.9 v 0.7 A 1.9 1.9 0 0 1 241.8 414.6 Z" style="fill: #263238"></path><g style="opacity: 0.6000000000000001"><path d="M 241.8 414.6 H 197 l 14 -43.3 a 1.9 1.9 0 0 1 2.5 -1.2 h 0 a 1.9 1.9 0 0 1 1.1 2.4 L 202.5 410 h 39.3 a 1.9 1.9 0 0 1 1.9 1.9 v 0.7 A 1.9 1.9 0 0 1 241.8 414.6 Z" style="fill: #ffffff"></path></g><path d="M 229.2 384.1 h -1.7 c -0.1 0 -0.3 0 -0.4 0 a 4.5 4.5 0 0 1 3.8 5.8 l -1.2 3.9 a 5.8 5.8 0 0 1 -5.2 4 a 4.1 4.1 0 0 0 0.5 0 h 1.7 a 5.8 5.8 0 0 0 5.5 -4 l 1.2 -3.9 A 4.5 4.5 0 0 0 229.2 384.1 Z" style="fill: #263238"></path><path d="M 151.4 246.9 H 133.7 a 6.1 6.1 0 0 0 -6.1 6.7 l 10 115 a 7.5 7.5 0 0 0 7.3 6.7 h 17.7 Z" style="fill: #0078d7"></path><path d="M 151.4 246.9 H 133.7 a 6.1 6.1 0 0 0 -6.1 6.7 l 10 115 a 7.5 7.5 0 0 0 7.3 6.7 h 17.7 Z" style="fill: #ffffff; opacity: 0.2"></path><path d="M 308.3 375.3 H 149.5 a 7.5 7.5 0 0 1 -7.3 -6.7 l -10.1 -115 a 6.1 6.1 0 0 1 6.2 -6.7 H 297 a 7.5 7.5 0 0 1 7.3 6.7 l 10.1 115 A 6.1 6.1 0 0 1 308.3 375.3 Z" style="fill: #0078d7"></path><path d="M 308.3 375.3 H 149.5 a 7.5 7.5 0 0 1 -7.3 -6.7 l -10.1 -115 a 6.1 6.1 0 0 1 6.2 -6.7 H 297 a 7.5 7.5 0 0 1 7.3 6.7 l 10.1 115 A 6.1 6.1 0 0 1 308.3 375.3 Z" style="fill: #ffffff; opacity: 0.5"></path><path d="M 141.2 357 l 1 11.6 a 7.5 7.5 0 0 0 7.3 6.7 H 308.3 a 6.1 6.1 0 0 0 6.2 -6.7 l -1 -11.6 Z" style="fill: #0078d7"></path><path d="M 141.2 357 l 1 11.6 a 7.5 7.5 0 0 0 7.3 6.7 H 308.3 a 6.1 6.1 0 0 0 6.2 -6.7 l -1 -11.6 Z" style="fill: #ffffff; opacity: 0.2"></path><polygon points="137.8,252.7 146.4,351.3 307.2,351.3 298.5,252.7 137.8,252.7" style="fill: #ffffff"></polygon><polygon points="175.6,268.1 145.6,268.1 144.6,257.2 174.7,257.2 175.6,268.1" style="fill: #263238"></polygon><polygon points="226.2,262.6 207.9,262.6 207.4,257.2 225.7,257.2 226.2,262.6" style="fill: #263238"></polygon><polygon points="191.5,346.8 161.6,346.8 160.3,332.3 190.2,332.3 191.5,346.8" style="fill: #263238"></polygon><polygon points="227.7,346.8 197.7,346.8 196.5,332.3 226.4,332.3 227.7,346.8" style="fill: #263238"></polygon><polygon points="263.9,346.8 233.9,346.8 232.7,332.3 262.6,332.3 263.9,346.8" style="fill: #263238"></polygon><polygon points="300,346.8 270.1,346.8 268.8,332.3 298.8,332.3 300,346.8" style="fill: #263238"></polygon><polygon points="248.3,262.6 230.1,262.6 229.6,257.2 247.9,257.2 248.3,262.6" style="fill: #263238"></polygon><polygon points="270.5,262.6 252.2,262.6 251.8,257.2 270,257.2 270.5,262.6" style="fill: #263238"></polygon><polygon points="292.7,262.6 274.4,262.6 273.9,257.2 292.2,257.2 292.7,262.6" style="fill: #263238"></polygon><polygon points="305,327.4 144.3,327.4 139.7,275.6 300.5,275.6 305,327.4" style="fill: #263238"></polygon><g style="opacity: 0.9"><polygon points="175.6,268.1 145.6,268.1 144.6,257.2 174.7,257.2 175.6,268.1" style="fill: #ffffff"></polygon><polygon points="226.2,262.6 207.9,262.6 207.4,257.2 225.7,257.2 226.2,262.6" style="fill: #ffffff"></polygon><polygon points="191.5,346.8 161.6,346.8 160.3,332.3 190.2,332.3 191.5,346.8" style="fill: #ffffff"></polygon><polygon points="227.7,346.8 197.7,346.8 196.5,332.3 226.4,332.3 227.7,346.8" style="fill: #ffffff"></polygon><polygon points="263.9,346.8 233.9,346.8 232.7,332.3 262.6,332.3 263.9,346.8" style="fill: #ffffff"></polygon><polygon points="300,346.8 270.1,346.8 268.8,332.3 298.8,332.3 300,346.8" style="fill: #ffffff"></polygon><polygon points="248.3,262.6 230.1,262.6 229.6,257.2 247.9,257.2 248.3,262.6" style="fill: #ffffff"></polygon><polygon points="270.5,262.6 252.2,262.6 251.8,257.2 270,257.2 270.5,262.6" style="fill: #ffffff"></polygon><polygon points="292.7,262.6 274.4,262.6 273.9,257.2 292.2,257.2 292.7,262.6" style="fill: #ffffff"></polygon><polygon points="305,327.4 144.3,327.4 139.7,275.6 300.5,275.6 305,327.4" style="fill: #ffffff"></polygon></g><path d="M 241.2 314.2 h -18.8 a 5.4 5.4 0 0 1 -5.2 -4.8 l -1.6 -18.8 a 4.6 4.6 0 0 1 1.2 -3.5 a 4.6 4.6 0 0 1 3.4 -1.5 h 18.8 a 5.4 5.4 0 0 1 5.2 4.8 l 1.6 18.8 a 4.6 4.6 0 0 1 -1.2 3.5 A 4.6 4.6 0 0 1 241.2 314.2 Z m -21.1 -26.4 a 2.3 2.3 0 0 0 -2.3 2.6 l 1.6 18.8 a 3.1 3.1 0 0 0 3 2.8 h 18.8 a 2.3 2.3 0 0 0 1.8 -0.7 a 2.4 2.4 0 0 0 0.6 -1.8 l -1.6 -18.8 a 3.1 3.1 0 0 0 -3 -2.8 Z" style="fill: #263238"></path><g style="opacity: 0.5"><path d="M 241.2 314.2 h -18.8 a 5.4 5.4 0 0 1 -5.2 -4.8 l -1.6 -18.8 a 4.6 4.6 0 0 1 1.2 -3.5 a 4.6 4.6 0 0 1 3.4 -1.5 h 18.8 a 5.4 5.4 0 0 1 5.2 4.8 l 1.6 18.8 a 4.6 4.6 0 0 1 -1.2 3.5 A 4.6 4.6 0 0 1 241.2 314.2 Z m -21.1 -26.4 a 2.3 2.3 0 0 0 -2.3 2.6 l 1.6 18.8 a 3.1 3.1 0 0 0 3 2.8 h 18.8 a 2.3 2.3 0 0 0 1.8 -0.7 a 2.4 2.4 0 0 0 0.6 -1.8 l -1.6 -18.8 a 3.1 3.1 0 0 0 -3 -2.8 Z" style="fill: #ffffff"></path></g><path d="M 226.7 307.7 l -14.3 -13.2 a 2.5 2.5 0 0 1 -0.1 -3.5 h 0 a 2.5 2.5 0 0 1 3.5 -0.1 l 10.7 9.8 L 247.1 278 a 2.5 2.5 0 0 1 3.5 -0.2 h 0 a 2.5 2.5 0 0 1 0.2 3.5 Z" style="fill: #0078d7"></path><g style="opacity: 0.2"><path d="M 226.7 307.7 l -14.3 -13.2 a 2.5 2.5 0 0 1 -0.1 -3.5 h 0 a 2.5 2.5 0 0 1 3.5 -0.1 l 10.7 9.8 L 247.1 278 a 2.5 2.5 0 0 1 3.5 -0.2 h 0 a 2.5 2.5 0 0 1 0.2 3.5 Z"></path></g></g><g id="freepik--device-2--inject-78"><path d="M 86.7 138.8 H 78.1 a 8 8 0 0 0 -8.1 8.9 l 9.6 110.1 a 9.9 9.9 0 0 0 9.7 8.9 H 97.9 Z" style="fill: #0078d7"></path><path d="M 86.7 138.8 H 78.1 a 8 8 0 0 0 -8.1 8.9 l 9.6 110.1 a 9.9 9.9 0 0 0 9.7 8.9 H 97.9 Z" style="fill: #ffffff; opacity: 0.2"></path><path d="M 92.7 266.6 h 75.6 a 8 8 0 0 0 8.1 -8.9 L 166.8 147.6 a 9.9 9.9 0 0 0 -9.7 -8.9 H 81.5 a 8 8 0 0 0 -8.1 8.9 l 9.6 110.1 A 9.9 9.9 0 0 0 92.7 266.6 Z" style="fill: #0078d7"></path><path d="M 92.7 266.6 h 75.6 a 8 8 0 0 0 8.1 -8.9 L 166.8 147.6 a 9.9 9.9 0 0 0 -9.7 -8.9 H 81.5 a 8 8 0 0 0 -8.1 8.9 l 9.6 110.1 A 9.9 9.9 0 0 0 92.7 266.6 Z" style="fill: #ffffff; opacity: 0.5"></path><polygon points="173.3,257.7 163.7,147.6 76.5,147.6 86.2,257.7 173.3,257.7" style="fill: #ffffff"></polygon><path d="M 130.3 264.7 a 3.1 3.1 0 0 1 -3 -2.8 a 2.5 2.5 0 0 1 2.5 -2.8 a 3.1 3.1 0 0 1 3 2.8 A 2.5 2.5 0 0 1 130.3 264.7 Z m -0.4 -4.9 a 1.9 1.9 0 0 0 -1.9 2.1 a 2.4 2.4 0 0 0 2.3 2.1 a 1.9 1.9 0 0 0 1.9 -2.1 A 2.3 2.3 0 0 0 129.9 259.8 Z" style="fill: #0078d7"></path><polygon points="159.9,158.3 153.5,158.3 152.9,151.9 159.4,151.9 159.9,158.3" style="fill: #263238"></polygon><polygon points="100.8,158.3 82.4,158.3 81.8,151.9 100.2,151.9 100.8,158.3" style="fill: #263238"></polygon><polygon points="164.1,206.5 86.6,206.5 83.1,166.1 160.6,166.1 164.1,206.5" style="fill: #263238"></polygon><polygon points="135.4,250.7 90.5,250.7 87.1,212 132.1,212 135.4,250.7" style="fill: #263238"></polygon><polygon points="147.7,220.8 137.4,220.8 136.6,212 147,212 147.7,220.8" style="fill: #263238"></polygon><path d="M 162.1 215 h -11.3 a 1.7 1.7 0 0 1 -1.6 -1.5 h 0 a 1.4 1.4 0 0 1 1.4 -1.5 h 11.3 a 1.7 1.7 0 0 1 1.6 1.5 h 0 A 1.4 1.4 0 0 1 162.1 215 Z" style="fill: #263238"></path><path d="M 163.9 220.8 H 151.3 a 1.7 1.7 0 0 1 -1.6 -1.5 h 0 a 1.4 1.4 0 0 1 1.4 -1.5 h 12.6 a 1.7 1.7 0 0 1 1.6 1.5 h 0 A 1.4 1.4 0 0 1 163.9 220.8 Z" style="fill: #263238"></path><path d="M 163.2 226.7 H 139.4 a 1.7 1.7 0 0 1 -1.6 -1.5 h 0 a 1.3 1.3 0 0 1 1.4 -1.5 h 23.7 a 1.6 1.6 0 0 1 1.6 1.5 h 0 A 1.4 1.4 0 0 1 163.2 226.7 Z" style="fill: #263238"></path><path d="M 164.9 232.5 h -25 a 1.6 1.6 0 0 1 -1.6 -1.5 h 0 a 1.3 1.3 0 0 1 1.4 -1.5 h 25 a 1.6 1.6 0 0 1 1.6 1.5 h 0 A 1.3 1.3 0 0 1 164.9 232.5 Z" style="fill: #263238"></path><path d="M 162.2 238.3 H 140.4 a 1.7 1.7 0 0 1 -1.6 -1.5 h 0 a 1.3 1.3 0 0 1 1.4 -1.5 H 162 a 1.6 1.6 0 0 1 1.6 1.5 h 0 A 1.3 1.3 0 0 1 162.2 238.3 Z" style="fill: #263238"></path><path d="M 166 244.2 H 141 a 1.7 1.7 0 0 1 -1.6 -1.5 h 0 a 1.4 1.4 0 0 1 1.4 -1.5 h 25 a 1.7 1.7 0 0 1 1.6 1.5 h 0 A 1.4 1.4 0 0 1 166 244.2 Z" style="fill: #263238"></path><path d="M 158.7 250.1 H 141.5 a 1.7 1.7 0 0 1 -1.6 -1.5 h 0 a 1.3 1.3 0 0 1 1.4 -1.5 h 17.2 a 1.6 1.6 0 0 1 1.6 1.5 h 0 A 1.4 1.4 0 0 1 158.7 250.1 Z" style="fill: #263238"></path><polygon points="159.9,158.3 153.5,158.3 152.9,151.9 159.4,151.9 159.9,158.3" style="fill: #ffffff; opacity: 0.9"></polygon><polygon points="100.8,158.3 82.4,158.3 81.8,151.9 100.2,151.9 100.8,158.3" style="fill: #ffffff; opacity: 0.9"></polygon><polygon points="164.1,206.5 86.6,206.5 83.1,166.1 160.6,166.1 164.1,206.5" style="fill: #ffffff; opacity: 0.9"></polygon><polygon points="135.4,250.7 90.5,250.7 87.1,212 132.1,212 135.4,250.7" style="fill: #ffffff; opacity: 0.9"></polygon><polygon points="147.7,220.8 137.4,220.8 136.6,212 147,212 147.7,220.8" style="fill: #ffffff; opacity: 0.9"></polygon><path d="M 162.1 215 h -11.3 a 1.7 1.7 0 0 1 -1.6 -1.5 h 0 a 1.4 1.4 0 0 1 1.4 -1.5 h 11.3 a 1.7 1.7 0 0 1 1.6 1.5 h 0 A 1.4 1.4 0 0 1 162.1 215 Z" style="fill: #ffffff; opacity: 0.9"></path><path d="M 163.9 220.8 H 151.3 a 1.7 1.7 0 0 1 -1.6 -1.5 h 0 a 1.4 1.4 0 0 1 1.4 -1.5 h 12.6 a 1.7 1.7 0 0 1 1.6 1.5 h 0 A 1.4 1.4 0 0 1 163.9 220.8 Z" style="fill: #ffffff; opacity: 0.9"></path><path d="M 163.2 226.7 H 139.4 a 1.7 1.7 0 0 1 -1.6 -1.5 h 0 a 1.3 1.3 0 0 1 1.4 -1.5 h 23.7 a 1.6 1.6 0 0 1 1.6 1.5 h 0 A 1.4 1.4 0 0 1 163.2 226.7 Z" style="fill: #ffffff; opacity: 0.9"></path><path d="M 164.9 232.5 h -25 a 1.6 1.6 0 0 1 -1.6 -1.5 h 0 a 1.3 1.3 0 0 1 1.4 -1.5 h 25 a 1.6 1.6 0 0 1 1.6 1.5 h 0 A 1.3 1.3 0 0 1 164.9 232.5 Z" style="fill: #ffffff; opacity: 0.9"></path><path d="M 162.2 238.3 H 140.4 a 1.7 1.7 0 0 1 -1.6 -1.5 h 0 a 1.3 1.3 0 0 1 1.4 -1.5 H 162 a 1.6 1.6 0 0 1 1.6 1.5 h 0 A 1.3 1.3 0 0 1 162.2 238.3 Z" style="fill: #ffffff; opacity: 0.9"></path><path d="M 166 244.2 H 141 a 1.7 1.7 0 0 1 -1.6 -1.5 h 0 a 1.4 1.4 0 0 1 1.4 -1.5 h 25 a 1.7 1.7 0 0 1 1.6 1.5 h 0 A 1.4 1.4 0 0 1 166 244.2 Z" style="fill: #ffffff; opacity: 0.9"></path><path d="M 158.7 250.1 H 141.5 a 1.7 1.7 0 0 1 -1.6 -1.5 h 0 a 1.3 1.3 0 0 1 1.4 -1.5 h 17.2 a 1.6 1.6 0 0 1 1.6 1.5 h 0 A 1.4 1.4 0 0 1 158.7 250.1 Z" style="fill: #ffffff; opacity: 0.9"></path><path d="M 139.7 206.8 H 122.7 a 4.8 4.8 0 0 1 -4.7 -4.3 l -1.5 -16.9 a 4.1 4.1 0 0 1 4.1 -4.5 h 16.9 a 4.8 4.8 0 0 1 4.7 4.3 l 1.5 16.9 a 4.1 4.1 0 0 1 -1.1 3.2 A 4.1 4.1 0 0 1 139.7 206.8 Z m -19 -23.7 a 2 2 0 0 0 -2.1 2.3 l 1.5 16.9 a 2.8 2.8 0 0 0 2.7 2.5 h 16.9 a 2.1 2.1 0 0 0 1.6 -0.7 a 2.1 2.1 0 0 0 0.5 -1.6 l -1.5 -16.9 a 2.8 2.8 0 0 0 -2.7 -2.5 Z" style="fill: #263238"></path><g style="opacity: 0.5"><path d="M 139.7 206.8 H 122.7 a 4.8 4.8 0 0 1 -4.7 -4.3 l -1.5 -16.9 a 4.1 4.1 0 0 1 4.1 -4.5 h 16.9 a 4.8 4.8 0 0 1 4.7 4.3 l 1.5 16.9 a 4.1 4.1 0 0 1 -1.1 3.2 A 4.1 4.1 0 0 1 139.7 206.8 Z m -19 -23.7 a 2 2 0 0 0 -2.1 2.3 l 1.5 16.9 a 2.8 2.8 0 0 0 2.7 2.5 h 16.9 a 2.1 2.1 0 0 0 1.6 -0.7 a 2.1 2.1 0 0 0 0.5 -1.6 l -1.5 -16.9 a 2.8 2.8 0 0 0 -2.7 -2.5 Z" style="fill: #ffffff"></path></g><path d="M 126.7 201 l -12.9 -11.9 a 2.2 2.2 0 0 1 -0.1 -3.1 h 0 a 2.2 2.2 0 0 1 3.1 -0.1 l 9.6 8.8 L 145 174.2 a 2.2 2.2 0 0 1 3.1 -0.1 h 0 a 2.2 2.2 0 0 1 0.1 3.1 Z" style="fill: #0078d7"></path><g style="opacity: 0.2"><path d="M 126.7 201 l -12.9 -11.9 a 2.2 2.2 0 0 1 -0.1 -3.1 h 0 a 2.2 2.2 0 0 1 3.1 -0.1 l 9.6 8.8 L 145 174.2 a 2.2 2.2 0 0 1 3.1 -0.1 h 0 a 2.2 2.2 0 0 1 0.1 3.1 Z"></path></g></g><g id="freepik--device-1--inject-78"><path d="M 81.6 323.8 H 75.3 a 4.2 4.2 0 0 0 -4.2 4.6 l 7 79.9 a 5.1 5.1 0 0 0 5 4.6 H 89.4 Z" style="fill: #0078d7"></path><path d="M 81.6 323.8 H 75.3 a 4.2 4.2 0 0 0 -4.2 4.6 l 7 79.9 a 5.1 5.1 0 0 0 5 4.6 H 89.4 Z" style="fill: #ffffff; opacity: 0.2"></path><path d="M 183.6 413 H 85.8 a 5.1 5.1 0 0 1 -5 -4.6 l -7 -79.9 a 4.2 4.2 0 0 1 4.2 -4.6 h 97.8 a 5.1 5.1 0 0 1 5 4.6 l 7 79.9 A 4.2 4.2 0 0 1 183.6 413 Z" style="fill: #0078d7"></path><path d="M 183.6 413 H 85.8 a 5.1 5.1 0 0 1 -5 -4.6 l -7 -79.9 a 4.2 4.2 0 0 1 4.2 -4.6 h 97.8 a 5.1 5.1 0 0 1 5 4.6 l 7 79.9 A 4.2 4.2 0 0 1 183.6 413 Z" style="fill: #ffffff; opacity: 0.5"></path><path d="M 141 406.3 H 248 a 0 0 0 0 1 0 0 v 2.2 a 6 6 0 0 1 -6 6 H 141 a 0 0 0 0 1 0 0 v -8.2 A 0 0 0 0 1 141 406.3 Z" style="fill: #0078d7"></path><path d="M 141 406.3 H 248 a 0 0 0 0 1 0 0 v 2.2 a 6 6 0 0 1 -6 6 H 141 a 0 0 0 0 1 0 0 v -8.2 A 0 0 0 0 1 141 406.3 Z" style="fill: #ffffff; opacity: 0.2"></path><path d="M 203.3 410.4 h -8.6 a 4.1 4.1 0 0 1 -4.1 -4.1 h 16.7 A 4.1 4.1 0 0 1 203.3 410.4 Z" style="fill: #ffffff; opacity: 0.4"></path><polygon points="181.7,399.5 175.5,329.1 79.3,329.1 85.4,399.5 181.7,399.5" style="fill: #ffffff"></polygon><path d="M 131.7 326.5 a 1.1 1.1 0 0 1 -1.1 1.2 a 1.3 1.3 0 0 1 -1.3 -1.2 a 1.1 1.1 0 0 1 1.1 -1.2 A 1.3 1.3 0 0 1 131.7 326.5 Z" style="fill: #263238"></path><path d="M 81.2 406.3 h 67.1 a 0 0 0 0 1 0 0 v 2.2 a 6 6 0 0 1 -6 6 H 87.2 a 6 6 0 0 1 -6 -6 v -2.2 A 0 0 0 0 1 81.2 406.3 Z" style="fill: #0078d7"></path><path d="M 91.6 411.2 H 87 a 1 1 0 0 1 -1 -1 h 0 a 1 1 0 0 1 1 -1 h 4.7 a 1 1 0 0 1 1 1 h 0 A 1 1 0 0 1 91.6 411.2 Z" style="fill: #ffffff; opacity: 0.4"></path><path d="M 101.6 411.2 H 97 a 1 1 0 0 1 -1 -1 h 0 a 1 1 0 0 1 1 -1 h 4.7 a 1 1 0 0 1 1 1 h 0 A 1 1 0 0 1 101.6 411.2 Z" style="fill: #ffffff; opacity: 0.4"></path><polygon points="100.8,340.3 84.6,340.3 84,334 100.3,334 100.8,340.3" style="fill: #263238"></polygon><polygon points="135.8,336.3 125.7,336.3 125.5,334 135.7,334 135.8,336.3" style="fill: #263238"></polygon><polygon points="148.1,336.3 137.9,336.3 137.7,334 147.9,334 148.1,336.3" style="fill: #263238"></polygon><polygon points="160.3,336.3 150.1,336.3 149.9,334 160.1,334 160.3,336.3" style="fill: #263238"></polygon><polygon points="172.5,336.3 162.4,336.3 162.2,334 172.3,334 172.5,336.3" style="fill: #263238"></polygon><polygon points="174.4,357.5 86.1,357.5 84.9,343.7 173.2,343.7 174.4,357.5" style="fill: #263238"></polygon><polygon points="143.3,386.5 88.7,386.5 86.3,359.9 141,359.9 143.3,386.5" style="fill: #263238"></polygon><path d="M 128.2 391.9 H 90.4 A 1.4 1.4 0 0 1 89 390.6 h 0 a 1.1 1.1 0 0 1 1.1 -1.2 H 128 a 1.4 1.4 0 0 1 1.4 1.2 h 0 A 1.1 1.1 0 0 1 128.2 391.9 Z" style="fill: #263238"></path><path d="M 124.5 395.9 H 90.7 a 1.4 1.4 0 0 1 -1.4 -1.2 h 0 a 1.1 1.1 0 0 1 1.1 -1.3 h 33.8 a 1.4 1.4 0 0 1 1.4 1.3 h 0 A 1.1 1.1 0 0 1 124.5 395.9 Z" style="fill: #263238"></path><path d="M 172.4 377 H 150.2 a 1.4 1.4 0 0 1 -1.4 -1.2 h 0 a 1.1 1.1 0 0 1 1.1 -1.3 h 22.2 a 1.4 1.4 0 0 1 1.4 1.3 h 0 A 1.1 1.1 0 0 1 172.4 377 Z" style="fill: #263238"></path><path d="M 168.7 381 H 150.6 a 1.4 1.4 0 0 1 -1.4 -1.2 h 0 a 1.1 1.1 0 0 1 1.1 -1.2 h 18.2 a 1.4 1.4 0 0 1 1.4 1.2 h 0 A 1.1 1.1 0 0 1 168.7 381 Z" style="fill: #263238"></path><polygon points="174.1,372 148.2,372 147.1,359.9 173.1,359.9 174.1,372" style="fill: #263238"></polygon><polygon points="176.3,396.2 150.3,396.2 149.2,384.1 175.2,384.1 176.3,396.2" style="fill: #263238"></polygon><g style="opacity: 0.9"><polygon points="100.8,340.3 84.6,340.3 84,334 100.3,334 100.8,340.3" style="fill: #ffffff"></polygon><polygon points="135.8,336.3 125.7,336.3 125.5,334 135.7,334 135.8,336.3" style="fill: #ffffff"></polygon><polygon points="148.1,336.3 137.9,336.3 137.7,334 147.9,334 148.1,336.3" style="fill: #ffffff"></polygon><polygon points="160.3,336.3 150.1,336.3 149.9,334 160.1,334 160.3,336.3" style="fill: #ffffff"></polygon><polygon points="172.5,336.3 162.4,336.3 162.2,334 172.3,334 172.5,336.3" style="fill: #ffffff"></polygon><polygon points="174.4,357.5 86.1,357.5 84.9,343.7 173.2,343.7 174.4,357.5" style="fill: #ffffff"></polygon><polygon points="143.3,386.5 88.7,386.5 86.3,359.9 141,359.9 143.3,386.5" style="fill: #ffffff"></polygon><path d="M 128.2 391.9 H 90.4 A 1.4 1.4 0 0 1 89 390.6 h 0 a 1.1 1.1 0 0 1 1.1 -1.2 H 128 a 1.4 1.4 0 0 1 1.4 1.2 h 0 A 1.1 1.1 0 0 1 128.2 391.9 Z" style="fill: #ffffff"></path><path d="M 124.5 395.9 H 90.7 a 1.4 1.4 0 0 1 -1.4 -1.2 h 0 a 1.1 1.1 0 0 1 1.1 -1.3 h 33.8 a 1.4 1.4 0 0 1 1.4 1.3 h 0 A 1.1 1.1 0 0 1 124.5 395.9 Z" style="fill: #ffffff"></path><path d="M 172.4 377 H 150.2 a 1.4 1.4 0 0 1 -1.4 -1.2 h 0 a 1.1 1.1 0 0 1 1.1 -1.3 h 22.2 a 1.4 1.4 0 0 1 1.4 1.3 h 0 A 1.1 1.1 0 0 1 172.4 377 Z" style="fill: #ffffff"></path><path d="M 168.7 381 H 150.6 a 1.4 1.4 0 0 1 -1.4 -1.2 h 0 a 1.1 1.1 0 0 1 1.1 -1.2 h 18.2 a 1.4 1.4 0 0 1 1.4 1.2 h 0 A 1.1 1.1 0 0 1 168.7 381 Z" style="fill: #ffffff"></path><polygon points="174.1,372 148.2,372 147.1,359.9 173.1,359.9 174.1,372" style="fill: #ffffff"></polygon><polygon points="176.3,396.2 150.3,396.2 149.2,384.1 175.2,384.1 176.3,396.2" style="fill: #ffffff"></polygon></g><path d="M 145.5 376.1 H 126.7 a 5.4 5.4 0 0 1 -5.2 -4.8 l -1.6 -18.8 a 4.5 4.5 0 0 1 4.6 -5 h 18.8 a 5.4 5.4 0 0 1 5.2 4.8 l 1.6 18.8 a 4.5 4.5 0 0 1 -4.6 5 Z m -21.1 -26.4 a 2.4 2.4 0 0 0 -1.8 0.7 a 2.3 2.3 0 0 0 -0.6 1.8 l 1.6 18.8 a 3.1 3.1 0 0 0 3 2.8 h 18.8 a 2.3 2.3 0 0 0 2.3 -2.6 l -1.6 -18.8 a 3.1 3.1 0 0 0 -3 -2.8 Z" style="fill: #263238"></path><g style="opacity: 0.5"><path d="M 145.5 376.1 H 126.7 a 5.4 5.4 0 0 1 -5.2 -4.8 l -1.6 -18.8 a 4.5 4.5 0 0 1 4.6 -5 h 18.8 a 5.4 5.4 0 0 1 5.2 4.8 l 1.6 18.8 a 4.5 4.5 0 0 1 -4.6 5 Z m -21.1 -26.4 a 2.4 2.4 0 0 0 -1.8 0.7 a 2.3 2.3 0 0 0 -0.6 1.8 l 1.6 18.8 a 3.1 3.1 0 0 0 3 2.8 h 18.8 a 2.3 2.3 0 0 0 2.3 -2.6 l -1.6 -18.8 a 3.1 3.1 0 0 0 -3 -2.8 Z" style="fill: #ffffff"></path></g><path d="M 131.1 369.6 L 116.7 356.4 a 2.5 2.5 0 0 1 -0.1 -3.5 h 0 a 2.5 2.5 0 0 1 3.5 -0.1 l 10.7 9.8 l 20.7 -22.7 a 2.5 2.5 0 0 1 3.5 -0.2 h 0 a 2.5 2.5 0 0 1 0.2 3.5 Z" style="fill: #0078d7"></path><g style="opacity: 0.2"><path d="M 131.1 369.6 L 116.7 356.4 a 2.5 2.5 0 0 1 -0.1 -3.5 h 0 a 2.5 2.5 0 0 1 3.5 -0.1 l 10.7 9.8 l 20.7 -22.7 a 2.5 2.5 0 0 1 3.5 -0.2 h 0 a 2.5 2.5 0 0 1 0.2 3.5 Z"></path></g></g><g id="freepik--Character--inject-78"><g id="freepik--Chair--inject-78"><path d="M 373.6 336.1 H 385.5 a 12 12 0 0 0 11.9 -11 l 2.2 -27.4 l -4.5 -0.4 l -2.2 27.4 a 7.5 7.5 0 0 1 -7.4 6.9 H 373.6 Z" style="fill: #263238"></path><path d="M 373.6 336.1 H 385.5 a 12 12 0 0 0 11.9 -11 l 2.2 -27.4 l -4.5 -0.4 l -2.2 27.4 a 7.5 7.5 0 0 1 -7.4 6.9 H 373.6 Z" style="fill: #ffffff; opacity: 0.30000000000000004"></path><path d="M 390.1 330 l -0.7 3.2 a 6.7 6.7 0 0 1 -1.2 2.6 a 11.8 11.8 0 0 1 -2.7 0.3 H 373.6 v -4.5 H 385.5 A 7.4 7.4 0 0 0 390.1 330 Z" style="opacity: 0.2"></path><path d="M 379.6 300.6 A 5.2 5.2 0 0 1 375 295 l 3.6 -35 a 5.2 5.2 0 0 1 5.7 -4.6 h 34.3 a 3.4 3.4 0 0 1 3.1 3.8 l -3.9 38.5 a 3.5 3.5 0 0 1 -3.8 3.1 Z" style="fill: #0078d7"></path><path d="M 379.6 300.6 A 5.2 5.2 0 0 1 375 295 l 3.6 -35 a 5.2 5.2 0 0 1 5.7 -4.6 h 34.3 a 3.4 3.4 0 0 1 3.1 3.8 l -3.9 38.5 a 3.5 3.5 0 0 1 -3.8 3.1 Z" style="opacity: 0.30000000000000004"></path><path d="M 417.7 297.5 l 3.9 -38.5 a 3.5 3.5 0 0 0 -3.1 -3.8 h 0 a 5.2 5.2 0 0 0 -5.7 4.6 l -3.6 35 a 5.2 5.2 0 0 0 4.6 5.7 h 0 A 3.5 3.5 0 0 0 417.7 297.5 Z" style="fill: #0078d7"></path><path d="M 378.9 402.4 l -0.3 -0.9 a 2.9 2.9 0 0 0 -2.8 -2 H 343.8 a 2.9 2.9 0 0 0 -2.8 2.3 l -0.1 0.4 a 2.8 2.8 0 0 1 -2.8 2.2 h 0 a 2.8 2.8 0 0 1 -2.8 -3.4 l 0.1 -0.4 a 8.6 8.6 0 0 1 8.3 -6.7 h 32.1 A 8.6 8.6 0 0 1 384 399.7 l 0.3 0.9 a 2.8 2.8 0 0 1 -2.7 3.7 h 0 A 2.8 2.8 0 0 1 378.9 402.4 Z" style="fill: #263238"></path><path d="M 378.9 402.4 l -0.3 -0.9 a 2.9 2.9 0 0 0 -2.8 -2 H 343.8 a 2.9 2.9 0 0 0 -2.8 2.3 l -0.1 0.4 a 2.8 2.8 0 0 1 -2.8 2.2 h 0 a 2.8 2.8 0 0 1 -2.8 -3.4 l 0.1 -0.4 a 8.6 8.6 0 0 1 8.3 -6.7 h 32.1 A 8.6 8.6 0 0 1 384 399.7 l 0.3 0.9 a 2.8 2.8 0 0 1 -2.7 3.7 h 0 A 2.8 2.8 0 0 1 378.9 402.4 Z" style="fill: #ffffff; opacity: 0.30000000000000004"></path><rect x="355.1" y="393.8" width="9.9" height="5.6" style="opacity: 0.2"></rect><path d="M 360.1 403.7 h 0 a 2.8 2.8 0 0 0 2.8 -2.8 v -75 h -5.6 v 75 A 2.8 2.8 0 0 0 360.1 403.7 Z" style="fill: #263238"></path><path d="M 360.1 403.7 h 0 a 2.8 2.8 0 0 0 2.8 -2.8 v -75 h -5.6 v 75 A 2.8 2.8 0 0 0 360.1 403.7 Z" style="fill: #ffffff; opacity: 0.30000000000000004"></path><path d="M 356.1 408.8 a 4 4 0 1 0 4 -4 A 4 4 0 0 0 356.1 408.8 Z" style="fill: #263238"></path><path d="M 380.5 408.8 a 4 4 0 1 0 4 -4 A 4 4 0 0 0 380.5 408.8 Z" style="fill: #263238"></path><path d="M 331.4 408.8 a 4 4 0 1 0 3.9 -4 A 3.9 3.9 0 0 0 331.4 408.8 Z" style="fill: #263238"></path><rect x="357.3" y="330.3" width="5.6" height="13.3" style="opacity: 0.2"></rect><path d="M 341.8 336.7 H 379 a 6.6 6.6 0 0 0 6.5 -5.2 l 1.1 -5 h -53 l 1.9 5.7 A 6.7 6.7 0 0 0 341.8 336.7 Z" style="fill: #263238"></path><path d="M 341.8 336.7 H 379 a 6.6 6.6 0 0 0 6.5 -5.2 l 1.1 -5 h -53 l 1.9 5.7 A 6.7 6.7 0 0 0 341.8 336.7 Z" style="fill: #ffffff; opacity: 0.30000000000000004"></path><path d="M 327.7 321.4 h 57.9 a 3.3 3.3 0 0 1 3.3 3.3 v 0.8 a 5 5 0 0 1 -5 5 H 329.4 a 5 5 0 0 1 -5 -5 v -0.8 A 3.3 3.3 0 0 1 327.7 321.4 Z" transform="translate(713.4,651.8) rotate(-180)" style="fill: #0078d7"></path><path d="M 327.7 321.4 h 57.9 a 3.3 3.3 0 0 1 3.3 3.3 v 0.8 a 5 5 0 0 1 -5 5 H 329.4 a 5 5 0 0 1 -5 -5 v -0.8 A 3.3 3.3 0 0 1 327.7 321.4 Z" transform="translate(713.4,651.8) rotate(-180)" style="opacity: 0.30000000000000004"></path><path d="M 361.6 321.4 h 35.3 a 3.3 3.3 0 0 1 3.3 3.3 v 0.8 a 5 5 0 0 1 -5 5 h -32 a 5 5 0 0 1 -5 -5 v -0.8 A 3.3 3.3 0 0 1 361.6 321.4 Z" transform="translate(758.5,651.8) rotate(180)" style="fill: #0078d7"></path></g><polygon points="305,386.4 301.6,402.5 294.6,401.5 296,384.9 305,386.4" style="fill: #ff8b7b"></polygon><path d="M 294.1 400.7 l 8.6 0.6 a 0.6 0.6 0 0 1 0.5 0.6 h 0 l -0.1 6.9 a 1.4 1.4 0 0 1 -1.4 1.3 c -3 -0.3 -4.4 -0.5 -8.2 -0.8 a 68 68 0 0 1 -10.1 -1.1 c -3.2 -0.7 -2.3 -3.9 -0.9 -3.8 a 20.9 20.9 0 0 0 10.2 -3.3 A 2.1 2.1 0 0 1 294.1 400.7 Z" style="fill: #263238"></path><path d="M 289.9 401.4 a 1 1 0 0 1 -0.1 -1 a 0.7 0.7 0 0 1 0.4 -0.5 c 1 -0.3 3 1.4 3.3 1.5 a 0.3 0.3 0 0 1 0.1 0.2 a 0.2 0.2 0 0 1 -0.1 0.1 a 9.5 9.5 0 0 1 -2.1 0.1 A 2.1 2.1 0 0 1 289.9 401.4 Z m 0.4 -1.1 a 0.3 0.3 0 0 0 -0.2 0.2 a 0.7 0.7 0 0 0 0.1 0.7 c 0.3 0.4 1.3 0.5 2.7 0.3 c -0.8 -0.6 -2.1 -1.4 -2.6 -1.2 Z" style="fill: #263238"></path><path d="M 293.2 401.7 c -0.7 -0.5 -1.8 -2.2 -1.5 -3 a 0.7 0.7 0 0 1 0.7 -0.5 a 1 1 0 0 1 0.8 0.3 c 0.7 0.8 0.4 3.1 0.4 3.1 a 0.2 0.2 0 0 1 -0.1 0.1 a 0.1 0.1 0 0 1 -0.1 0 A 0.1 0.1 0 0 1 293.2 401.7 Z m -0.8 -3.1 c -0.3 0 -0.4 0.1 -0.4 0.2 a 3.8 3.8 0 0 0 1.1 2.4 a 4 4 0 0 0 -0.3 -2.5 a 0.5 0.5 0 0 0 -0.4 -0.2 Z" style="fill: #263238"></path><polygon points="296,384.9 305,386.4 303.3,394.5 295.3,393.7 296,384.9" style="opacity: 0.2"></polygon><path d="M 364.7 281.3 s -0.9 15 -4.9 15.7 S 304.9 308 301.2 320 s -6.7 71.8 -6.7 71.8 l 10.2 0.9 s 14 -50.8 13.3 -64.3 c 0 0 44.5 0 59.3 -8.2 s 7.7 -37.3 7.7 -37.3 Z" style="fill: #263238"></path><path d="M 364.7 281.3 s -0.9 15 -4.9 15.7 S 304.9 308 301.2 320 s -6.7 71.8 -6.7 71.8 l 10.2 0.9 s 14 -50.8 13.3 -64.3 c 0 0 44.5 0 59.3 -8.2 s 7.7 -37.3 7.7 -37.3 Z" style="fill: #ffffff; opacity: 0.5"></path><path d="M 319.3 328.5 c 1.9 0 5.7 -0.1 10.6 -0.3 l 6.4 -5 l 37.5 -7.6 l 1.4 -12.1 s -36.9 2.6 -46.8 8.1 C 320.9 315.8 319.5 324.4 319.3 328.5 Z" style="opacity: 0.2"></path><polygon points="328.9,389.6 325.5,405.9 318.4,405.2 319.8,388.3 328.9,389.6" style="fill: #ff8b7b"></polygon><path d="M 317.8 403.1 l 8.6 0.9 a 0.5 0.5 0 0 1 0.5 0.6 h 0 l -0.3 6.9 a 1.4 1.4 0 0 1 -1.4 1.3 h 0 c -3 -0.4 -4.4 -0.7 -8.2 -1.1 a 70.4 70.4 0 0 1 -10 -1.4 c -3.1 -0.9 -2.2 -4 -0.8 -3.9 c 3.3 0.2 8 -1.5 10.3 -3 A 2.1 2.1 0 0 1 317.8 403.1 Z" style="fill: #263238"></path><path d="M 313.6 403.6 a 1 1 0 0 1 -0.1 -1.1 a 0.7 0.7 0 0 1 0.5 -0.5 c 1 -0.2 3 1.5 3.2 1.7 a 0.2 0.2 0 0 1 0 0.2 a 0.1 0.1 0 0 1 -0.1 0.1 a 9.6 9.6 0 0 1 -2.1 0.1 A 2.1 2.1 0 0 1 313.6 403.6 Z m 0.4 -1.1 a 0.3 0.3 0 0 0 -0.2 0.2 a 0.6 0.6 0 0 0 0.1 0.7 c 0.3 0.4 1.3 0.6 2.7 0.4 c -0.8 -0.7 -2 -1.5 -2.6 -1.3 Z" style="fill: #263238"></path><path d="M 316.9 404 c -0.7 -0.5 -1.7 -2.3 -1.4 -3.1 a 0.7 0.7 0 0 1 0.7 -0.5 a 0.9 0.9 0 0 1 0.7 0.3 c 0.7 0.8 0.3 3.1 0.3 3.1 a 0.2 0.2 0 0 1 -0.1 0.1 a 0.1 0.1 0 0 1 -0.1 0 A 0.1 0.1 0 0 1 316.9 404 Z m -0.7 -3.1 c -0.3 0 -0.4 0.1 -0.4 0.2 a 3.9 3.9 0 0 0 1.1 2.5 a 4.2 4.2 0 0 0 -0.2 -2.5 a 0.6 0.6 0 0 0 -0.4 -0.2 Z" style="fill: #263238"></path><polygon points="328.7,390.2 327.4,396.6 319.3,395.1 319.8,388.4 328.7,390.2" style="opacity: 0.2"></polygon><path d="M 380.1 233.7 c -8.1 -1.1 -1.8 -3.8 -1.8 -3.8 c 5.5 -1 5.8 -5 5.4 -8.8 l 10.1 -7.4 c -1.5 4.8 -3.5 13.5 -0.5 16.8 c 0 0 2 4.3 -10.6 3.4 Z" style="fill: #ff8b7b"></path><path d="M 389.7 216.8 l -6 4.4 a 15.1 15.1 0 0 1 0.1 2.7 c 2.1 -0.2 5.2 -2.3 5.6 -4.5 A 7.2 7.2 0 0 0 389.7 216.8 Z" style="opacity: 0.2"></path><path d="M 398.3 204.3 c -1.8 7.7 -2.4 11 -7 14.5 c -6.9 5.3 -15.9 1.9 -16.4 -6 c -0.5 -7.2 2.6 -18.5 10.7 -20.7 A 10.1 10.1 0 0 1 398.3 204.3 Z" style="fill: #ff8b7b"></path><path d="M 386 205.1 c -0.1 0.7 -0.6 1.1 -1 1.1 s -0.7 -0.6 -0.5 -1.3 s 0.6 -1.1 1 -1.1 S 386.1 204.4 386 205.1 Z" style="fill: #263238"></path><path d="M 378.1 204.3 c -0.1 0.7 -0.6 1.1 -1 1.1 s -0.7 -0.6 -0.5 -1.3 s 0.6 -1.1 1 -1.1 S 378.2 203.6 378.1 204.3 Z" style="fill: #263238"></path><path d="M 377.7 203 l -1.4 -0.6 S 376.8 203.7 377.7 203 Z" style="fill: #263238"></path><path d="M 380.1 205.6 a 20 20 0 0 1 -3.1 3.9 a 2.6 2.6 0 0 0 2.2 0.7 Z" style="fill: #ff5652"></path><path d="M 382.4 213 a 5.8 5.8 0 0 1 -1.1 0 a 0.2 0.2 0 0 1 -0.1 -0.2 a 0.2 0.2 0 0 1 0.2 -0.2 a 5.5 5.5 0 0 0 4.5 -1.5 a 0.2 0.2 0 1 1 0.3 0.3 A 5.8 5.8 0 0 1 382.4 213 Z" style="fill: #263238"></path><path d="M 388.4 201.7 a 0.4 0.4 0 0 1 -0.3 -0.1 a 2.8 2.8 0 0 0 -2.5 -1.1 a 0.4 0.4 0 0 1 -0.4 -0.3 a 0.4 0.4 0 0 1 0.3 -0.4 a 3.5 3.5 0 0 1 3.1 1.3 a 0.4 0.4 0 0 1 -0.1 0.6 A 0.4 0.4 0 0 1 388.4 201.7 Z" style="fill: #263238"></path><path d="M 376.5 200.4 a 0.3 0.3 0 0 1 -0.3 -0.1 a 0.4 0.4 0 0 1 0 -0.5 a 4.1 4.1 0 0 1 3.4 -1.3 a 0.4 0.4 0 0 1 0.3 0.4 a 0.4 0.4 0 0 1 -0.5 0.3 a 3.3 3.3 0 0 0 -2.6 1.1 A 0.4 0.4 0 0 1 376.5 200.4 Z" style="fill: #263238"></path><path d="M 385.6 203.9 l -1.4 -0.6 S 384.7 204.6 385.6 203.9 Z" style="fill: #263238"></path><path d="M 331.8 268.8 l 0.4 0 c 0.8 -0.1 2 -0.1 2.9 -0.2 s 2 -0.2 2.9 -0.4 a 19.1 19.1 0 0 0 5 -1.6 a 10.1 10.1 0 0 0 1.9 -1.1 a 9.3 9.3 0 0 0 0.7 -0.7 a 2.7 2.7 0 0 0 0.3 -0.3 l 0.4 -0.4 l 2 -2.2 l 2 -2.2 c 2.6 -3 5 -6.1 7.4 -9.2 c 1.2 -1.6 2.3 -3.2 3.4 -4.8 c 0.6 -0.8 1.1 -1.6 1.6 -2.4 s 1.1 -1.6 1.5 -2.3 l 0.1 -0.1 a 6.2 6.2 0 0 1 7.6 -2.1 c 2.9 1.2 4 4.2 2.6 6.7 c -0.6 1 -1.1 1.9 -1.7 2.8 s -1.2 1.8 -1.8 2.6 c -1.2 1.8 -2.5 3.5 -3.8 5.1 a 113.1 113.1 0 0 1 -8.5 9.6 c -1.5 1.5 -3.1 3 -4.7 4.5 c -0.2 0.2 -0.5 0.4 -0.8 0.6 a 9.7 9.7 0 0 1 -0.9 0.7 a 15.1 15.1 0 0 1 -1.9 1.2 a 20.7 20.7 0 0 1 -4 1.6 a 25.4 25.4 0 0 1 -8.1 0.8 a 30.8 30.8 0 0 1 -7.5 -1.4 a 2.6 2.6 0 0 1 -1.8 -2.1 A 2.6 2.6 0 0 1 331.8 268.8 Z" style="fill: #ff8b7b"></path><path d="M 368 234.3 s -2.3 0 -11 14.9 c 0 0 3.6 8.7 12.9 9.2 C 369.8 258.4 388 233.3 368 234.3 Z" style="fill: #263238"></path><path d="M 365.4 239 l 4.8 -1.1 l 5.7 3 l 1.1 2.8 c -1.5 6.8 -7.2 14.7 -7.2 14.7 a 14 14 0 0 1 -9.5 -4.3 A 96.8 96.8 0 0 0 365.4 239 Z" style="opacity: 0.5"></path><path d="M 323.1 267.3 l 2.6 -1.3 a 4 4 0 0 1 3.2 -0.1 l 4.8 2 a 5.9 5.9 0 0 1 3.7 4.2 l 0.2 1.1 c -4.2 2.4 -10.8 2.3 -10.8 2.3 l -1.9 0.1 a 2.9 2.9 0 0 1 -3.3 -2.3 l -0.4 -3.2 A 2.9 2.9 0 0 1 323.1 267.3 Z" style="fill: #ff8b7b"></path><path d="M 373.8 281.3 s 1.1 23 -2.9 23.7 S 329.9 309 326.3 321 s -7.7 71.8 -7.7 71.8 l 10.2 1.9 s 16 -52.8 15.3 -66.3 c 0 0 40.6 1.2 49.3 -7.2 S 400.1 283 400.1 283 Z" style="fill: #263238"></path><path d="M 373.8 281.3 s 1.1 23 -2.9 23.7 S 329.9 309 326.3 321 s -7.7 71.8 -7.7 71.8 l 10.2 1.9 s 16 -52.8 15.3 -66.3 c 0 0 40.6 1.2 49.3 -7.2 S 400.1 283 400.1 283 Z" style="fill: #ffffff; opacity: 0.5"></path><path d="M 380.2 229.8 c -0.3 0.2 -6.7 4.4 1.7 4.4 S 393 230.5 393 230.4 c 3 0.4 6.4 1.1 10.1 2 l -2.7 56.3 s -23.6 2.1 -36.8 -3.8 c 0 0 -1.7 -41.5 2.2 -48 C 365.8 237 367.8 230.8 380.2 229.8 Z" style="fill: #263238"></path><path d="M 402.6 242.8 l -1.1 21.9 c -4.7 -15.6 -4.5 -23.6 -4.5 -23.6 l 1.3 -2.9 Z" style="opacity: 0.5"></path><path d="M 430 246.5 a 2.5 2.5 0 0 0 -2.5 1.1 l 0 0.1 c -1.2 1.7 -2.4 3.5 -3.6 5.2 s -2.4 3.4 -3.7 5 c -0.8 1 -1.7 2 -2.5 2.9 a 1.2 1.2 0 0 1 -1.9 -0.3 c -1.3 -2.7 -2.5 -5.5 -3.7 -8.3 c -0.8 -2.1 -1.6 -4.2 -2.4 -6.3 s -1.5 -4.3 -2.2 -6.3 l 0 -0.1 a 5 5 0 0 0 -6.6 -3 a 5.1 5.1 0 0 0 -2.8 6.2 c 0.7 2.4 1.5 4.5 2.3 6.7 S 402 253.8 403 256 s 2 4.4 3.2 6.5 s 2.4 4.3 3.7 6.3 l 0.2 0.3 a 2.8 2.8 0 0 0 0.4 0.5 a 7.4 7.4 0 0 0 1.8 1.3 a 6.5 6.5 0 0 0 2.4 0.7 a 7.1 7.1 0 0 0 3.9 -0.8 a 13.1 13.1 0 0 0 3.7 -2.9 a 35.2 35.2 0 0 0 4.2 -5.9 c 1.1 -2 2.1 -4 3 -6 s 1.7 -4.1 2.5 -6.2 A 2.5 2.5 0 0 0 430 246.5 Z" style="fill: #ff8b7b"></path><path d="M 416.9 252.3 a 22 22 0 0 1 -15.4 6.3 s -10.1 -23.9 -1.3 -26.4 C 408.5 229.9 416.9 252.3 416.9 252.3 Z" style="fill: #263238"></path><path d="M 428.4 239.2 L 426.5 241 a 3 3 0 0 0 -1 2.6 l 0.6 4.6 a 5.7 5.7 0 0 0 3 4.3 l 1 0.5 c 3.4 -2.7 5.1 -8.2 5.1 -8.2 l 0.7 -1.5 a 2.6 2.6 0 0 0 -1.3 -3.4 l -3 -1.3 A 3 3 0 0 0 428.4 239.2 Z" style="fill: #ff8b7b"></path><path d="M 381.4 298 l -56.6 5.3 a 1.6 1.6 0 0 0 0.3 3.1 l 56.6 -5.3 a 1.5 1.5 0 1 0 -0.3 -3.1 Z" style="fill: #0078d7"></path><path d="M 325.9 305.4 L 352 302.9 a 0.7 0.7 0 0 0 0.6 -1 l -13.4 -29.1 a 2.1 2.1 0 0 0 -2.1 -1.2 L 311 274 a 0.7 0.7 0 0 0 -0.6 1 l 13.4 29.1 A 2.1 2.1 0 0 0 325.9 305.4 Z" style="fill: #0078d7"></path><path d="M 325 305.5 L 351.1 303 a 0.7 0.7 0 0 0 0.6 -1 l -13.4 -29.1 a 2.1 2.1 0 0 0 -2.1 -1.2 l -26.2 2.5 a 0.7 0.7 0 0 0 -0.6 1 l 13.4 29.1 A 2.1 2.1 0 0 0 325 305.5 Z" style="fill: #0078d7"></path><path d="M 325 305.5 L 351.1 303 a 0.7 0.7 0 0 0 0.6 -1 l -13.4 -29.1 a 2.1 2.1 0 0 0 -2.1 -1.2 l -26.2 2.5 a 0.7 0.7 0 0 0 -0.6 1 l 13.4 29.1 A 2.1 2.1 0 0 0 325 305.5 Z" style="fill: #ffffff; opacity: 0.7000000000000001"></path><path d="M 354.6 303.6 a 1.5 1.5 0 1 1 -0.3 -3.1 L 381.4 298 a 1.5 1.5 0 1 1 0.3 3.1 Z" style="fill: #ffffff; opacity: 0.7000000000000001"></path><rect x="359" y="301.2" width="2.2" height="0.7" transform="translate(746.9,568.2) rotate(174.6)" style="opacity: 0.5"></rect><rect x="355.7" y="301.5" width="2.2" height="0.7" transform="translate(740.2,569.1) rotate(174.6)" style="opacity: 0.5"></rect><path d="M 395.9 210.2 a 10.2 10.2 0 0 1 -2.7 -11.8 a 16.9 16.9 0 0 0 -6.5 -1.5 c -5 0 -10.7 1.1 -9.2 -2.8 c 0 0 -5.3 -6.8 3.7 -7.7 c 0 0 -0.5 -8.5 6.8 -3 c 0 0 6.1 -7.2 9.1 2.6 c 0 0 9.1 -4.8 6.8 7 c 0 0 6.5 0.1 2.4 7.6 c 0 0 3.4 4.6 -3.3 8.6 c 0 0 0.5 6.5 -4.3 5.4 c 0 0 -5.6 7.9 -6.4 4.2 C 391.6 215.4 395.9 210.2 395.9 210.2 Z" style="fill: #263238"></path><path d="M 398.8 211.8 a 5.5 5.5 0 0 1 -3.4 2.8 c -1.8 0.4 -2.5 -1.7 -1.8 -3.8 c 0.6 -1.8 2.3 -4.3 4.1 -3.7 S 399.7 210.1 398.8 211.8 Z" style="fill: #ff8b7b"></path><polygon points="394.8,213.8 392.9,217.3 397.3,217.3 395.4,213.8 394.8,213.8" style="fill: #0078d7"></polygon><polygon points="394.8,213.8 392.9,217.3 397.3,217.3 395.4,213.8 394.8,213.8" style="opacity: 0.2"></polygon><polygon points="392.9,217.3 394.8,213.8 396.8,217.3 392.9,217.3" style="fill: #0078d7"></polygon><polygon points="293.8,392.3 305,393.5 305.8,390.3 293.8,389 293.8,392.3" style="fill: #263238"></polygon><polygon points="318,393.5 329.1,395.4 330.1,392.3 318.2,390.1 318,393.5" style="fill: #263238"></polygon></g><g id="freepik--Target--inject-78"><path d="M 306.3 226.2 c -19.2 0 -36.1 -15.6 -37.8 -34.8 s 12.6 -34.8 31.7 -34.8 s 36.1 15.6 37.8 34.8 S 325.5 226.2 306.3 226.2 Z" style="fill: #263238"></path><path d="M 308 225.4 c -19.2 0 -36.1 -15.6 -37.8 -34.8 s 12.6 -34.8 31.7 -34.8 s 36.1 15.6 37.8 34.8 S 327.2 225.4 308 225.4 Z" style="fill: #0078d7"></path><g style="opacity: 0.7000000000000001"><path d="M 308 225.4 c -19.2 0 -36.1 -15.6 -37.8 -34.8 s 12.6 -34.8 31.7 -34.8 s 36.1 15.6 37.8 34.8 S 327.2 225.4 308 225.4 Z" style="fill: #ffffff"></path></g><path d="M 308 225.4 c -19.2 0 -36.1 -15.6 -37.8 -34.8 s 12.6 -34.8 31.7 -34.8 s 36.1 15.6 37.8 34.8 S 327.2 225.4 308 225.4 Z m -5.5 -62.8 c -15.5 0 -27 12.6 -25.6 28.1 s 15.1 28.1 30.5 28.1 s 27 -12.6 25.6 -28.1 S 318 162.6 302.5 162.6 Z" style="fill: #0078d7"></path><path d="M 306.9 212.7 a 24.6 24.6 0 0 1 -23.9 -22 a 19.9 19.9 0 0 1 20.1 -22 a 24.6 24.6 0 0 1 24 22 A 19.9 19.9 0 0 1 306.9 212.7 Z m -3.3 -37.4 a 13.8 13.8 0 0 0 -14 15.3 A 17.1 17.1 0 0 0 306.3 206 a 13.8 13.8 0 0 0 14 -15.3 A 17.1 17.1 0 0 0 303.6 175.3 Z" style="fill: #0078d7"></path><path d="M 313.6 190.6 a 7.8 7.8 0 0 1 -7.9 8.7 a 9.7 9.7 0 0 1 -9.5 -8.7 a 7.8 7.8 0 0 1 7.9 -8.7 A 9.7 9.7 0 0 1 313.6 190.6 Z" style="fill: #0078d7"></path><polygon points="329.4,166.3 327.6,159.7 334.6,152.8 336.2,159.4 329.4,166.3" style="fill: #263238"></polygon><polygon points="329.4,166.3 336,168 342.9,161.1 336.2,159.4 329.4,166.3" style="fill: #263238"></polygon><rect x="317.2" y="157.5" width="1.9" height="40" transform="translate(218.7,-173) rotate(45)" style="fill: #263238"></rect></g></svg>
